:SAMPLES-PER-SECOND 30
:FULLY-SPECIFIED
:DEGREES
220
root  0.313189 34.4763 -15.9211 -76.2266 -88.9414 75.6367
RightUpLeg  -30.3598 -25.8291 -11.3734
RightLeg  57.9834 -2.61848 -4.95264
RightFoot  -17.0403 0.490235 12.204
RightToes  -1.33073e-015 0 -3.6325e-017
Spine  29.7491 1.42378 -1.95974
Spine1  -21.8766 1.06665 0.453769
HEad  -11.0864 5.05689 -3.81753
LeftShoulder1  0.226424 7.46985 16.1248
LeftArm  -70.6805 -9.7019 -6.14171
LeftForeArm  -23.7646 -67.2071 -31.4729
LeftHand  0.372093 6.41171 38.9519
RightShoulder  -0.0304282 -5.5739 -7.87425
RightArm  -77.2922 1.99042 2.85883
RightForeArm  -32.6446 65.6725 29.792
RightHand  -2.21769 1.81276 -34.9305
LeftUpLeg  -28.5102 27.0377 15.7936
LeftLeg  53.7822 7.05887 10.6807
LeftFoot  -16.3499 -0.428686 -11.9852
LeftToes  -4.0021e-011 8.38769e-011 -3.99229e-011
221
root  0.838168 32.9153 -15.2675 -57.5987 -88.8764 56.2426
RightUpLeg  -34.2634 -27.352 -13.1259
RightLeg  65.3198 -1.26149 -3.67269
RightFoot  -19.2218 0.69287 11.8982
RightToes  -1.33073e-015 0 -3.6325e-017
Spine  31.3873 1.46685 -1.85568
Spine1  -18.1003 1.03705 1.30278
HEad  -18.259 3.85962 -4.32553
LeftShoulder1  0.654453 9.90027 21.2939
LeftArm  -77.5521 -10.2192 -1.47808
LeftForeArm  -36.1307 -58.1175 -20.6413
LeftHand  0.959262 7.98527 40.4362
RightShoulder  0.047728 -6.57161 -11.3443
RightArm  -81.9999 2.30897 -5.61653
RightForeArm  -46.9018 53.8603 17.928
RightHand  -2.27317 1.7418 -36.056
LeftUpLeg  -33.4684 30.0963 15.4731
LeftLeg  61.6634 3.27101 7.28666
LeftFoot  -15.5027 -0.370536 -12.6746
LeftToes  -4.0021e-011 8.38769e-011 -3.99229e-011
222
root  1.02168 32.3108 -14.637 -43.8768 -88.4781 42.1274
RightUpLeg  -35.234 -28.0421 -14.9225
RightLeg  67.6629 -0.836896 -3.00465
RightFoot  -19.6215 0.787736 12.7108
RightToes  -1.33073e-015 0 -3.6325e-017
Spine  31.0535 1.42275 -1.48374
Spine1  -14.2123 1.05232 0.936666
HEad  -22.451 2.78611 -4.22752
LeftShoulder1  1.03875 11.9968 23.5916
LeftArm  -82.0435 -11.0331 -2.97599
LeftForeArm  -35.8624 -57.3484 -20.3105
LeftHand  0.944204 7.94094 40.3636
RightShoulder  0.0814005 -7.44018 -11.9756
RightArm  -82.2294 -0.0188994 -8.01794
RightForeArm  -49.3915 50.2376 15.9771
RightHand  -2.10154 1.76778 -33.4214
LeftUpLeg  -35.7167 31.2997 14.297
LeftLeg  65.419 2.23899 6.13642
LeftFoot  -16.9636 -0.509241 -12.425
LeftToes  -4.0021e-011 8.38769e-011 -3.99229e-011
223
root  0.88095 32.7708 -14.0938 -32.543 -87.8459 30.2627
RightUpLeg  -32.6457 -26.8384 -16.4921
RightLeg  64.963 -1.38247 -3.84867
RightFoot  -17.3815 0.671435 15.0845
RightToes  -1.33073e-015 0 -3.6325e-017
Spine  29.8081 1.11613 -1.05165
Spine1  -12.6241 0.959644 -0.591268
HEad  -21.1565 2.53761 -3.74525
LeftShoulder1  0.941842 11.8447 22.4112
LeftArm  -80.6365 -11.57 -11.137
LeftForeArm  -21.5243 -67.0698 -31.8886
LeftHand  0.526878 6.80475 40.1766
RightShoulder  0.0170214 -7.17121 -10.0338
RightArm  -78.3071 -3.61457 -1.64727
RightForeArm  -41.2109 59.9065 23.5849
RightHand  -2.14952 2.19458 -32.301
LeftUpLeg  -34.105 30.1561 13.2303
LeftLeg  63.9797 2.98091 7.30619
LeftFoot  -17.8947 -0.563337 -11.6528
LeftToes  -4.0021e-011 8.38769e-011 -3.99229e-011
224
root  0.595696 34.0074 -13.5691 -23.8058 -87.3995 21.0426
RightUpLeg  -28.1115 -23.9203 -17.0391
RightLeg  58.2551 -3.97153 -7.22882
RightFoot  -12.5421 0.0944304 15.6343
RightToes  -1.33073e-015 0 -3.6325e-017
Spine  28.3856 0.623708 -0.633028
Spine1  -13.1726 0.616364 -1.52743
HEad  -16.0894 3.2786 -3.53421
LeftShoulder1  0.334251 9.15686 16.0193
LeftArm  -72.5905 -9.8309 -19.8821
LeftForeArm  15.1252 -76.7989 -64.5031
LeftHand  0.321379 6.24293 39.9621
RightShoulder  -0.071197 -5.47474 -5.00354
RightArm  -72.6922 -6.68347 8.2577
RightForeArm  -15.1422 73.145 46.2666
RightHand  -2.2974 2.39666 -33.5675
LeftUpLeg  -29.8142 27.8792 12.4022
LeftLeg  58.1486 4.65237 8.60277
LeftFoot  -16.2781 -0.391974 -11.3358
LeftToes  -4.0021e-011 8.38769e-011 -3.99229e-011
225
root  0.265428 35.6626 -13.0188 -21.1664 -87.5452 18.7069
RightUpLeg  -23.9681 -20.6936 -16.0609
RightLeg  49.7562 -9.81754 -12.4405
RightFoot  -6.77819 -0.477066 11.3111
RightToes  -1.33073e-015 0 -3.6325e-017
Spine  26.3481 0.269172 -0.517564
Spine1  -14.2861 0.247818 -1.05457
HEad  -10.9081 4.73621 -3.93366
LeftShoulder1  -0.0964154 5.7548 4.36461
LeftArm  -62.6362 -5.24851 -23.9151
LeftForeArm  53.7841 -78.0506 -99.062
LeftHand  0.266601 6.10891 39.1301
RightShoulder  0.0360481 -3.21022 2.96375
RightArm  -66.433 -8.61028 15.8136
RightForeArm  23.889 77.7658 79.5905
RightHand  -2.2965 2.23988 -34.1936
LeftUpLeg  -24.5311 26.2828 11.222
LeftLeg  48.979 6.92449 8.90397
LeftFoot  -13.0886 -0.0977275 -11.5145
LeftToes  -4.0021e-011 8.38769e-011 -3.99229e-011
226
root  -0.120905 37.2835 -12.4812 -31.331 -88.3516 29.8851
RightUpLeg  -21.4765 -19.2572 -13.8185
RightLeg  42.9074 -16.9066 -16.4695
RightFoot  -3.11028 -0.392775 4.86226
RightToes  -1.33073e-015 0 -3.6325e-017
Spine  23.6146 0.135054 -0.253085
Spine1  -14.9548 0.171987 -0.890959
HEad  -7.31357 6.33527 -4.0975
LeftShoulder1  0.10571 2.84802 -8.81438
LeftArm  -55.4106 0.845148 -23.8094
LeftForeArm  63.205 -77.6638 -106.498
LeftHand  0.050503 5.50145 37.501
RightShoulder  0.418752 -1.23886 11.5711
RightArm  -62.122 -11.2799 21.1369
RightForeArm  37.5857 77.933 88.4374
RightHand  -2.18641 2.20112 -32.8056
LeftUpLeg  -19.1028 25.7309 9.84217
LeftLeg  38.4018 9.9262 8.70434
LeftFoot  -10.0412 0.192637 -11.6856
LeftToes  -4.0021e-011 8.38769e-011 -3.99229e-011
227
root  -0.473796 38.4515 -11.9704 -75.6375 -89.167 74.978
RightUpLeg  -20.7638 -20.8856 -10.6717
RightLeg  40.2453 -20.2503 -17.6999
RightFoot  -4.0225 -0.204097 2.89504
RightToes  -1.33073e-015 0 -3.6325e-017
Spine  21.2329 0.137315 0.826117
Spine1  -15.3201 0.420587 -2.18821
HEad  -4.78724 7.39443 -3.21613
LeftShoulder1  0.719595 0.512426 -17.8559
LeftArm  -51.2887 6.68522 -22.9877
LeftForeArm  62.4513 -77.6512 -106.288
LeftHand  -0.268871 4.51917 36.0551
RightShoulder  0.852135 0.0833203 17.4063
RightArm  -61.122 -15.2008 25.5704
RightForeArm  37.5848 77.9538 86.6677
RightHand  -2.15259 2.77474 -30.2021
LeftUpLeg  -14.2725 25.3983 8.89122
LeftLeg  29.5367 13.2418 8.35336
LeftFoot  -8.09386 0.392985 -12.0861
LeftToes  -4.0021e-011 8.38769e-011 -3.99229e-011
228
root  -0.62225 38.9847 -11.5073 -146.916 -88.8282 146.511
RightUpLeg  -21.7115 -23.8781 -7.19289
RightLeg  42.1146 -18.033 -16.8901
RightFoot  -8.58269 -0.199778 6.42666
RightToes  -1.33073e-015 0 -3.6325e-017
Spine  20.1311 0.389937 1.67602
Spine1  -15.5979 0.836322 -3.39286
HEad  -3.33166 7.65908 -2.05082
LeftShoulder1  1.07329 -0.65971 -19.4051
LeftArm  -48.9686 10.3202 -24.4563
LeftForeArm  63.4361 -77.4378 -108.698
LeftHand  -0.486009 3.8117 35.3723
RightShoulder  1.00877 0.564157 18.4024
RightArm  -61.9065 -18.0824 28.6677
RightForeArm  38.8351 77.9391 88.8894
RightHand  -2.17668 3.37177 -28.5186
LeftUpLeg  -11.5323 25.4322 8.26238
LeftLeg  25.2235 15.241 8.04955
LeftFoot  -8.04562 0.431865 -13.4
LeftToes  -4.0021e-011 8.38769e-011 -3.99229e-011
